<svg xmlns="http://www.w3.org/2000/svg" xmlns:xlink="http://www.w3.org/1999/xlink" viewBox="0 0 372.75 372.75"><defs><linearGradient id="a"><stop offset="0" stop-color="#0176c6"/><stop offset="1" stop-color="#8fd1fe"/></linearGradient><linearGradient id="b" y2="802.34" gradientUnits="userSpaceOnUse" x2="298.5" y1="615.47" x1="298.5"><stop offset="0" stop-color="#016cb3"/><stop offset="1" stop-color="#8fd1fe"/></linearGradient><linearGradient id="c" y2="872.93" xlink:href="#a" gradientUnits="userSpaceOnUse" x2="392.03" gradientTransform="translate(-18 18)" y1="709.36" x1="399.43"/><linearGradient id="d" y2="755.42" gradientUnits="userSpaceOnUse" x2="438.45" y1="719.01" x1="400.02"><stop offset="0" stop-color="#eee"/><stop offset="1" stop-color="#cccccf"/></linearGradient><linearGradient id="e" y2="428.59" xlink:href="#a" gradientUnits="userSpaceOnUse" x2="298.5" y1="626.56" x1="298.5"/></defs><path d="M137.12 429.09c-13.85 0-25 11.15-25 25v322.75c0 13.85 11.15 25 25 25h254.91L484.88 709V454.09c0-13.85-11.15-25-25-25H137.13z" fill="url(#b)" transform="translate(-112.12 -429.097)"/><path d="M399.03 727c-13.85 0-25 11.15-25 25v49.844h18l74.85-74.84h-67.844z" fill="url(#c)" transform="translate(-112.12 -429.097)"/><path d="M392.03 801.84L484.88 709h-67.844c-13.85 0-25 11.15-25 25v67.844z" fill="url(#d)" transform="translate(-112.12 -429.097)"/><path d="M137.12 429.09c-13.85 0-25 11.15-25 25v116.78c45.641 33.827 112.66 55.188 187.38 55.188 73.634 0 139.79-20.741 185.38-53.719v-118.25c0-13.85-11.15-25-25-25H137.13z" fill="url(#e)" transform="translate(-112.12 -429.097)"/><g fill="#369"><path d="M73.304 185.245c-5.29 8.99-18.3 52.18 111.871 167.799l7.895-3.504S171.95 183.905 129.937 160.1c-1.356 1.172-55.261 23.287-55.261 23.287s-.616.576-1.372 1.86zm2.252 3.412a.662.662 0 0 1 .204-.203c1.07-.702.953-1.323 4.845 2.024 4.738 4.074 7.373 22.87 8.712 25.944 1.34 3.073 11.456 28.181 19.576 38.374 3.863 4.85 56.116 69.133 55.084 69.245 0 0-63.867-62.228-75.297-85.634S75.227 210.406 74.9 203.565c-.308-6.413-.234-13.475.657-14.907zm41.811-10.871c.227-.421.524-.797.88-1.12 5.71-5.157 16.464.892 19.85 7.985 3.386 7.092 14.938 26.611 15.16 33.098.224 6.486 23.67 104.009 23.03 104.005 0 0-42.557-108.033-47.648-115.18-4.144-5.817-14.675-22.476-11.27-28.788zM35.954 26.595s14.77 16.828-.088 42.808c-14.859 25.98-14.679 25.733-14.679 25.733s-10.058 20.708 5.84 38.36c0 0 15.587 26.608 33.888 20.81l53.577-24.697s9.942-41.117-4.33-56.167c-14.27-15.05-53.683-39.429-74.206-46.847zm16.387 15.757s53.772 42.03 54.754 54.652c0 0-.285 22.427-11.242 23.548-10.957 1.121-19.16-29.077-19.16-29.077s-.15-27.183-24.352-49.124zM40.047 84.979c2.265-3.791 4.967-7.833 8.161-12.096-15.95 23.026 3.834 37.999 3.834 37.999 26.065 22.99 3.113 27.504 3.113 27.504-7.516 3.787-41.83-8.675-15.108-53.407zM61.797 158.11c4.916-3.225 54.39-26.309 54.39-26.309s4.848 7.696 2.66 7.935-55.507 22.552-55.507 22.552l-1.538-4.176zM65.314 165.383L70 175.578s56.257-21.547 55.682-22.467c-.574-.92-4.782-11.531-4.782-11.531L65.315 165.38zM71.23 177.672l55.255-22.887 1.293 3.842-56.014 23.38-.536-4.339z"/></g><path d="M333.99 176.723c5.216-7.609 7.15-12.979 7.15-12.979s4.68-7.273 4.844-27.147c0 0-2.795-30.777-16.247-46.473-6.263-7.308-22.649-16.348-34.909-11.623-12.26 4.725-14.743 9.41-20.486 12.056-5.742 2.646-13.18 5.478-23.362 1.619s-25.169-20.999-42.387-6.915-39.03 38.155-40.042 49.687-3.04 34.604 16.011 56.524c19.051 21.919 36.826 44.002 89.81 27.276 33.115-10.454 50.922-29.343 59.617-42.024zm-16.931 3.107c-5.284 7.588-16.152 8.894-24.277 2.933-8.125-5.96-10.42-16.924-5.136-24.512 5.285-7.588 16.147-8.927 24.272-2.966 8.125 5.96 10.425 16.957 5.141 24.545zm-36.447 18.75c-5.284 7.587-16.152 8.893-24.277 2.932-8.125-5.96-10.439-16.938-5.155-24.526 5.285-7.588 16.166-8.913 24.291-2.952 8.125 5.96 10.425 16.957 5.141 24.545zm34.848-74.805c-1.882 2.666-4.307 5.162-7.199 7.343-11.568 8.722-26.44 8.94-33.245.473-6.805-8.468-2.957-22.418 8.61-31.14 11.569-8.722 26.478-8.914 33.283-.446 5.104 6.351 4.198 15.774-1.45 23.77zm-77.681 71.888c-5.284 7.588-16.147 8.927-24.272 2.967-8.125-5.961-10.425-16.957-5.14-24.545 5.284-7.588 16.151-8.894 24.276-2.933 8.125 5.96 10.42 16.924 5.136 24.512zm-22.002-37.804c-5.284 7.588-16.166 8.914-24.291 2.953-8.125-5.96-10.425-16.957-5.14-24.545 5.284-7.588 16.151-8.894 24.276-2.933 8.125 5.96 10.44 16.938 5.155 24.526z" fill="#369"/><g fill="#eee"><path d="M76.876 185.245c-5.29 8.99-18.3 52.18 111.871 167.799l7.895-3.504s-21.12-165.635-63.133-189.439c-1.356 1.172-55.261 23.287-55.261 23.287s-.616.576-1.372 1.86zm2.252 3.412a.662.662 0 0 1 .204-.203c1.07-.702.953-1.323 4.845 2.024 4.738 4.074 7.373 22.87 8.712 25.944 1.34 3.073 11.456 28.181 19.576 38.374 3.863 4.85 56.116 69.133 55.084 69.245 0 0-63.867-62.228-75.297-85.634S78.8 210.406 78.471 203.565c-.308-6.413-.234-13.475.657-14.907zm41.811-10.871c.227-.421.524-.797.88-1.12 5.71-5.157 16.464.892 19.85 7.985 3.386 7.092 14.938 26.611 15.16 33.098.224 6.486 23.67 104.009 23.03 104.005 0 0-42.557-108.033-47.648-115.18-4.144-5.817-14.675-22.476-11.27-28.788zM39.526 26.595s14.77 16.828-.088 42.808C24.58 95.383 24.76 95.136 24.76 95.136s-10.058 20.708 5.84 38.36c0 0 15.587 26.608 33.888 20.81l53.577-24.697s9.942-41.117-4.33-56.167c-14.27-15.05-53.683-39.429-74.206-46.847zm16.387 15.757s53.772 42.03 54.754 54.652c0 0-.285 22.427-11.242 23.548-10.957 1.121-19.16-29.077-19.16-29.077s-.15-27.183-24.352-49.124zM43.62 84.979c2.265-3.791 4.967-7.833 8.161-12.096-15.95 23.026 3.834 37.999 3.834 37.999 26.065 22.99 3.113 27.504 3.113 27.504-7.516 3.787-41.83-8.675-15.108-53.407zM65.369 158.11c4.916-3.225 54.39-26.309 54.39-26.309s4.848 7.696 2.66 7.935-55.507 22.552-55.507 22.552l-1.538-4.176zM68.886 165.383l4.686 10.195s56.257-21.547 55.682-22.467c-.574-.92-4.782-11.531-4.782-11.531L68.887 165.38zM74.801 177.672l55.256-22.887 1.293 3.842-56.014 23.38-.536-4.339z"/></g><path d="M337.56 176.723c5.216-7.609 7.15-12.979 7.15-12.979s4.68-7.273 4.844-27.147c0 0-2.795-30.777-16.247-46.473-6.263-7.308-22.649-16.348-34.909-11.623-12.26 4.725-14.743 9.41-20.486 12.056-5.742 2.646-13.18 5.478-23.362 1.619s-25.169-20.999-42.387-6.915-39.03 38.155-40.042 49.687-3.04 34.604 16.011 56.524c19.051 21.919 36.826 44.002 89.81 27.276 33.115-10.454 50.922-29.343 59.617-42.024zm-16.931 3.107c-5.284 7.588-16.152 8.894-24.277 2.933-8.125-5.96-10.42-16.924-5.136-24.512 5.284-7.588 16.147-8.927 24.272-2.966 8.125 5.96 10.425 16.957 5.141 24.545zm-36.45 18.75c-5.284 7.588-16.152 8.894-24.277 2.933-8.125-5.96-10.439-16.938-5.155-24.526 5.285-7.588 16.166-8.913 24.291-2.952 8.125 5.96 10.425 16.957 5.141 24.545zm34.848-74.804c-1.882 2.666-4.307 5.162-7.199 7.343-11.568 8.722-26.44 8.94-33.245.473-6.805-8.468-2.957-22.418 8.61-31.14 11.569-8.722 26.478-8.914 33.283-.446 5.104 6.351 4.198 15.774-1.45 23.77zm-77.681 71.888c-5.284 7.588-16.147 8.927-24.272 2.967-8.125-5.961-10.425-16.957-5.14-24.545 5.284-7.588 16.151-8.894 24.276-2.934 8.125 5.961 10.42 16.925 5.136 24.513zm-22.002-37.804c-5.284 7.588-16.166 8.914-24.291 2.953-8.125-5.96-10.425-16.957-5.14-24.545 5.283-7.588 16.151-8.894 24.276-2.933 8.125 5.96 10.44 16.938 5.155 24.526z" fill="#eee"/></svg>